<?xml version="1.0" standalone="no"?>
<!DOCTYPE svg PUBLIC "-//W3C//DTD SVG 20010904//EN"
 "http://www.w3.org/TR/2001/REC-SVG-20010904/DTD/svg10.dtd">
<svg version="1.0" xmlns="http://www.w3.org/2000/svg"
 width="254.000000pt" height="254.000000pt" viewBox="0 0 254.000000 254.000000"
 preserveAspectRatio="xMidYMid meet">
<metadata>
Created by potrace 1.14, written by Peter Selinger 2001-2017
</metadata>
<g transform="translate(0.000000,254.000000) scale(0.100000,-0.100000)"
fill="#000000" stroke="none">
<path d="M0 1265 l0 -1265 1270 0 1270 0 0 1265 0 1265 -1270 0 -1270 0 0
-1265z m2037 1086 c86 -116 90 -233 13 -398 l-38 -82 43 -77 c132 -230 184
-552 137 -829 -27 -152 -50 -223 -117 -360 -97 -196 -241 -348 -414 -434 -221
-111 -441 -105 -696 19 -96 47 -205 127 -242 179 l-27 37 -54 -32 c-89 -54
-145 -69 -252 -69 -85 1 -101 4 -155 30 -60 30 -161 120 -185 164 l-12 24 28
-20 c109 -77 274 -130 369 -118 59 7 142 45 174 79 l23 24 -40 83 c-172 358
-172 828 -1 1172 22 43 53 99 70 123 l31 45 -22 46 c-44 95 -37 193 22 274
l32 44 12 -50 c13 -51 45 -116 71 -147 14 -15 20 -13 76 29 166 122 362 178
535 153 110 -16 218 -54 301 -105 l73 -45 27 20 c61 43 124 155 136 242 l7 47
28 -21 c15 -11 37 -32 47 -47z"/>
<path d="M706 1678 c-12 -45 -5 -133 13 -173 46 -102 128 -155 238 -155 45 0
82 7 110 19 46 21 118 90 126 121 4 17 1 19 -19 14 -32 -8 -54 11 -54 46 0 32
4 31 -237 99 -77 23 -148 43 -156 47 -9 3 -17 -3 -21 -18z"/>
<path d="M1860 1644 c-30 -9 -85 -24 -122 -35 -66 -19 -67 -20 -62 -48 4 -17
-1 -43 -11 -65 -31 -65 -109 -86 -167 -44 l-31 21 17 -25 c19 -29 77 -72 119
-87 16 -6 57 -11 93 -11 145 0 253 108 254 253 0 65 1 65 -90 41z"/>
<path d="M1152 1554 c4 -24 48 -33 48 -10 0 9 -4 16 -9 16 -5 0 -17 3 -26 6
-13 5 -16 2 -13 -12z"/>
<path d="M1530 1553 c-77 -22 -75 -21 -54 -44 27 -30 84 -23 104 13 21 38 5
48 -50 31z"/>
<path d="M976 1199 c-3 -17 -6 -47 -6 -65 0 -19 -3 -34 -6 -34 -19 0 -76 46
-94 76 -23 37 -24 37 -57 28 -22 -6 -23 -11 -23 -118 0 -157 32 -367 75 -494
18 -52 61 -139 74 -146 5 -3 28 19 52 50 159 206 361 270 556 174 35 -18 63
-33 61 -35 -2 -2 -30 6 -63 17 -136 46 -293 4 -390 -104 -48 -53 -125 -181
-125 -208 0 -16 51 -51 138 -94 153 -77 326 -44 454 85 126 128 218 378 234
635 6 88 5 102 -10 107 -12 5 -20 -2 -30 -26 -26 -64 -102 -106 -219 -122
l-48 -6 34 45 c60 77 73 197 24 209 -212 49 -271 57 -446 57 l-178 0 -7 -31z"/>
</g>
</svg>
