<svg enable-background="new 0 0 100 100" viewBox="0 0 100 125" xmlns="http://www.w3.org/2000/svg"><path d="m83.3085938 9.0285645h-2.3544922v-1.994629c0-1.6542969-1.3457031-3-3-3h-61.2626953c-1.6542969 0-3 1.3457031-3 3v35.2490235c0 1.6542969 1.3457031 3 3 3h2.3544922v1.9946289c0 1.6542969 1.3457031 3 3 3h61.2626953c1.6542969 0 3-1.3457031 3-3v-35.2490234c0-1.6542969-1.3457032-3-3-3zm-64.2626954 3v31.2543945h-2.3544922c-.5512695 0-1-.4487305-1-1v-35.2490235c0-.5512695.4487305-1 1-1h61.2626953c.5517578 0 1 .4487305 1 1v1.9946289h-56.9082031c-1.6542968.0000001-3 1.3457032-3 3.0000001zm65.2626954 35.2490234c0 .5512695-.4482422 1-1 1h-61.2626954c-.5512695 0-1-.4487305-1-1v-35.2490234c0-.5512695.4487305-1 1-1h61.2626953c.5517578 0 1 .4487305 1 1v35.2490234zm-4.8447266-16.1533203c0 .5522461-.4472656 1-1 1h-24.1083984c-.5527344 0-1-.4477539-1-1s.4472656-1 1-1h24.1083984c.5527344 0 1 .4477539 1 1zm0 6.9736328c0 .5522461-.4472656 1-1 1h-24.1083984c-.5527344 0-1-.4477539-1-1s.4472656-1 1-1h24.1083984c.5527344 0 1 .4477539 1 1zm-20.9912109-16.8896484c0-.5522461.4472656-1 1-1h13.8730469c.5527344 0 1 .4477539 1 1s-.4472656 1-1 1h-13.8730469c-.5527344 0-1-.447754-1-1zm-12.041504 10.0751953.0180664-11.1225586c.0014648-.9375-.3583984-1.8154297-1.0141602-2.472168-.6381836-.6391602-1.4824219-.9912109-2.3774414-.9912109h-.6665039c-1.8696288-0-3.3911132 1.5507812-3.3911132 3.4570312v5.3950195c-1.4912109-.3154297-3.6713867-.3154297-5.1625977 0v-5.3950195c0-1.90625-1.5214844-3.4570313-3.3911133-3.4570313h-.6674805c-.8945313 0-1.7387695.3520508-2.3769531.9912109-.6557617.6567383-1.015625 1.534668-1.0141602 2.4716797l.0185548 11.123047c.0004883.1782227-.0395508.3793945-.1220703.6147461-.2607422.7451172-.3930664 1.5097656-.3930664 2.2729492 0 4.6508789 4.7211914 8.4365234 10.5273438 8.4379883 5.8046875 0 10.5273438-3.7851563 10.5273438-8.4379883 0-.7646484-.1323242-1.5292969-.3925781-2.2724609-.0825197-.2368165-.1225587-.4375001-.1220705-.6152344zm-10.0151367 9.3256836c-4.7006836-.0014648-8.5249023-2.8891602-8.5249023-6.4379883 0-.5375977.0942383-1.0800781.2807617-1.6123047.1582031-.4521484.2348633-.8701172.234375-1.2783203l-.0185547-11.1235352c-.0004883-.4023438.1518555-.7768555.4296875-1.0556641.2602539-.2602539.6015625-.4038086.9614258-.4038086h.6674805c.7670898 0 1.3911133.6538086 1.3911133 1.4570313v6.7827148c0 .3569336.1904297.6870117.4995117.8657227s.6904297.1787109.9995117.0009766c.4169922-.2402344 1.5585938-.4985352 3.0820313-.4985352s2.6655273.2583008 3.0825195.4985352c.309082.1777344.6904297.1777344.9995117-.0009766s.4995117-.508789.4995117-.8657226v-6.7827149c0-.8032227.6240234-1.4570313 1.3911133-1.4570313h.6665039c.3603516 0 .7016602.1435547.9619141.4042969.277832.2783203.4301758.652832.4296875 1.0556641l-.0180664 11.121582c-.0014648.4057617.0751953.8242188.2333984 1.277832.0004883.0009766.0004883.0014648.0004883.0019531.1865234.5307617.2807617 1.0732422.2807617 1.6123047 0 3.5498048-3.8251953 6.4379884-8.5297852 6.4379884zm-2.9828491-9.2528077c0 .7440186-.6030884 1.347168-1.3471069 1.347168s-1.3471069-.6031494-1.3471069-1.347168c0-.7439575.6030884-1.3471069 1.3471069-1.3471069s1.3471069.6031494 1.3471069 1.3471069zm8.6651611 0c0 .7440186-.6031494 1.347168-1.347168 1.347168-.7439575 0-1.3471069-.6031494-1.3471069-1.347168 0-.7439575.6031494-1.3471069 1.3471069-1.3471069.7440186-0 1.347168.6031494 1.347168 1.3471069zm-2.9381713 4.5843506c0 1.5117188-1.2299805 2.7416992-2.7416992 2.7416992s-2.7412109-1.2299805-2.7412109-2.7416992c0-.5522461.4477539-1 1-1s1 .4477539 1 1v.000061c0 .4091797.3325195.7416382.7412109.7416382.4091797 0 .7416992-.3324585.7416992-.7416382v-.000061c0-.5522461.4477539-1 1-1s1 .4477539 1 1zm44.1484375 18.7763672h-61.2626954c-1.6542969 0-3 1.3457031-3 3v35.2490234c0 1.6542969 1.3457031 3 3 3h61.2626953c1.6542969 0 3-1.3457031 3-3v-35.2490234c.0000001-1.6542969-1.3457031-3-2.9999999-3zm1 38.2490235c0 .5517578-.4482422 1-1 1h-61.2626954c-.5512695 0-1-.4482422-1-1v-35.2490235c0-.5517578.4487305-1 1-1h61.2626953c.5517578 0 1 .4482422 1 1v35.2490235zm-4.8447266-16.1533204c0 .5527344-.4472656 1-1 1h-24.1083984c-.5527344 0-1-.4472656-1-1s.4472656-1 1-1h24.1083984c.5527344 0 1 .4472657 1 1zm0 6.9736329c0 .5527344-.4472656 1-1 1h-24.1083984c-.5527344 0-1-.4472656-1-1s.4472656-1 1-1h24.1083984c.5527344 0 1 .4472656 1 1zm-20.9912109-16.8896485c0-.5527344.4472656-1 1-1h13.8730469c.5527344 0 1 .4472656 1 1s-.4472656 1-1 1h-13.8730469c-.5527344 0-1-.4472656-1-1zm-14.2104493-1.7285156c-.9506836 0-1.8554688.3554688-2.5771484.9951172-2.859375-1.3066406-6.2978516-1.3056641-9.15625 0-.722168-.6396484-1.6269531-.9951172-2.5771484-.9951172-2.2387695 0-4.0605469 1.9326172-4.0605469 4.3076172 0 1.0712891.375 2.0849609 1.046875 2.8701172-.3188477.9785156-.4799805 1.984375-.4799805 2.9960938 0 5.609375 4.7768555 10.1728516 10.6489258 10.1728516s10.6489258-4.5634767 10.6489258-10.1728517c0-1.0117188-.1611328-2.0175781-.4799805-2.9960938.671875-.7851563 1.0463867-1.7978516 1.0463867-2.8701172 0-2.3749999-1.821289-4.3076171-4.0600586-4.3076171zm.9282227 7.2900391c.375.9384766.5654297 1.9091797.5654297 2.8837891 0 4.5068359-3.8798828 8.1728516-8.6489258 8.1728516s-8.6489258-3.6660156-8.6489258-8.1728516c0-.9746094.1904297-1.9453125.5654297-2.8837891.1606445-.4023438.0439453-.8632813-.2895508-1.1396484-.5356445-.4453125-.8427734-1.1171875-.8427734-1.8427734 0-1.2724609.9243164-2.3076172 2.0605469-2.3076172.5932617 0 1.1616211.3017578 1.5600586.8271484.2988281.3945313.8417969.5107422 1.2768555.2724609 2.6308594-1.4394531 6.0048828-1.4375 8.6367188 0 .4345703.2382813.9775391.1220703 1.2773438-.2734375.3974609-.5253906.9658203-.8261719 1.5595703-.8261719 1.1357422 0 2.0600586 1.0351563 2.0600586 2.3076172 0 .7255859-.3071289 1.3974609-.8422852 1.8427734-.3334962.2763672-.4501954.7373047-.2895509 1.1396485zm-11.0690308.665039c0 .7440186-.6030884 1.3471069-1.3471069 1.3471069s-1.3471069-.6030884-1.3471069-1.3471069.6030884-1.3471069 1.3471069-1.3471069 1.3471069.6030884 1.3471069 1.3471069zm8.6651612 0c0 .7440186-.6031494 1.3471069-1.347168 1.3471069-.7439575 0-1.3471069-.6030884-1.3471069-1.3471069s.6031494-1.3471069 1.3471069-1.3471069c.7440185 0 1.347168.6030884 1.347168 1.3471069zm-2.9384156 4.5839844c0 1.5117188-1.2294922 2.7421875-2.7412109 2.7421875s-2.7416992-1.2304688-2.7416992-2.7421875c0-.5527344.4477539-1 1-1s1 .4472656 1 1c0 .0001221.000061.0002441.000061.0003662.0002441.4090576.3325806.7418213.7416382.7418213.4085693 0 .7409058-.3327637.7411499-.7418213 0-.0001221.000061-.0002441.000061-.0003662 0-.5527344.4477539-1 1-1s1 .4472656 1 1z"/><g font-family="'Helvetica Neue', Helvetica, Arial-Unicode, Arial, Sans-serif" font-size="5" font-weight="bold"><text y="115">Created by Llisole</text><text y="120">from the Noun Project</text></g></svg>