<svg enable-background="new 0 0 100 100" viewBox="0 0 100 125" xmlns="http://www.w3.org/2000/svg"><path d="m34.5 58c-14.337 0-26-11.663-26-26s11.663-26 26-26 26 11.663 26 26c0 1.104.895 2 2 2s2-.896 2-2c0-16.542-13.458-30-30-30s-30 13.458-30 30 13.458 30 30 30c1.104 0 2-.895 2-2s-.896-2-2-2zm-.008-42c-4.529 0-9.383 3.036-10 9.819l3.969.361c.534-5.882 5.067-6.18 5.977-6.18 1.407 0 5.938.369 5.938 5.125 0 2.509-1.464 3.729-3.648 5.51-1.996 1.626-4.728 3.65-4.728 7.365v2h4v-2c0-1.731 1.334-2.701 3.252-4.266 2.227-1.814 5.244-4.073 5.244-8.609 0-5.458-4.022-9.125-10.004-9.125zm1.508 28h-4v4h4zm50.5-4h-36c-4.411 0-8.5 3.589-8.5 8v34c0 4.412 4.089 8 8.5 8h11l5.4 7.199c.377.504.971.801 1.6.801s1.223-.297 1.6-.801l5.4-7.199h11c4.412 0 7.5-3.588 7.5-8v-34c0-4.411-3.088-8-7.5-8zm3.5 42c0 2.205-1.295 4-3.5 4h-12c-.629 0-1.223.297-1.6.801l-4.4 5.865-4.4-5.865c-.377-.504-.971-.801-1.6-.801h-12c-2.206 0-4.5-1.795-4.5-4v-34c0-2.206 2.294-4 4.5-4h36c2.205 0 3.5 1.794 3.5 4zm-23.666-10.994-8.42-8.42-2.828 2.828 10 10c.375.377.885.586 1.414.586.037 0 .074-.002.111-.004.566-.031 1.096-.303 1.451-.746l16-20-3.125-2.5z"/><g font-family="'Helvetica Neue', Helvetica, Arial-Unicode, Arial, Sans-serif" font-size="5" font-weight="bold"><text y="115">Created by Sergey Demushkin</text><text y="120">from the Noun Project</text></g></svg>