<svg viewBox="0 0 122.88 116.6" xmlns="http://www.w3.org/2000/svg"><path d="m17.72 45.43v-24.31h16.8v5.32h-10.31v4.18h9.28v5.31h-9.28v9.5zm-1.05-45.43h66.5a16.7 16.7 0 0 1 16.67 16.67v34.69a16.7 16.7 0 0 1 -16.67 16.64h-37.71l-25.3 21.78a2.81 2.81 0 0 1 -4.62-2.31l1.35-19.47h-.22a16.7 16.7 0 0 1 -16.67-16.64v-34.69a16.7 16.7 0 0 1 16.67-16.67zm93 24.65a16.42 16.42 0 0 1 13.26 16v37.2a16.37 16.37 0 0 1 -16.33 16.32h-.6l1.34 19.83a2.46 2.46 0 0 1 -4 2l-25.45-22.47h-39.63l16.48-16.76h41.08a13.9 13.9 0 0 0 13.85-13.86v-37.16c0-.37 0-.74 0-1.1zm-26.46-19h-66.54a11.1 11.1 0 0 0 -11 11.05v34.66a11.1 11.1 0 0 0 11.05 11h3.42a2.8 2.8 0 0 1 2.6 3l-1.14 15.81 20.87-18a2.79 2.79 0 0 1 2-.81h38.69a11.1 11.1 0 0 0 11-11v-34.69a11.1 11.1 0 0 0 -11-11zm-43 39.81h-7l7.79-24.34h8.87l7.88 24.31h-7l-5.22-17.61h-.19l-5.22 17.61zm-1.31-9.59h13.1v4.94h-13.19v-4.97zm29.35.57h5l1.75 2.3 3.08 3.55 4 5h-5.71l-2.84-3.37-1.92-2.81-3.45-4.65zm13.91-3.13a13.84 13.84 0 0 1 -1.56 6.84 10.36 10.36 0 0 1 -4.19 4.21 12.78 12.78 0 0 1 -11.77 0 10.45 10.45 0 0 1 -4.18-4.23 13.83 13.83 0 0 1 -1.54-6.81 13.89 13.89 0 0 1 1.54-6.84 10.42 10.42 0 0 1 4.18-4.22 12.82 12.82 0 0 1 11.77 0 10.45 10.45 0 0 1 4.19 4.22 13.78 13.78 0 0 1 1.56 6.84zm-6.68 0a10.35 10.35 0 0 0 -.57-3.68 4.75 4.75 0 0 0 -1.66-2.29 5.17 5.17 0 0 0 -5.43 0 4.83 4.83 0 0 0 -1.67 2.29 10.59 10.59 0 0 0 -.56 3.68 10.63 10.63 0 0 0 .47 3.69 4.8 4.8 0 0 0 1.67 2.28 5.12 5.12 0 0 0 5.43 0 4.72 4.72 0 0 0 1.66-2.28 10.38 10.38 0 0 0 .57-3.68z"/></svg>